<?xml version="1.0" encoding="UTF-8" standalone="no"?>
<svg width="12px" height="12px" version="1.1" xmlns="http://www.w3.org/2000/svg"
    xmlns:xlink="http://www.w3.org/1999/xlink" xml:space="preserve"
    xmlns:serif="http://www.serif.com/"
    style="fill-rule:evenodd;clip-rule:evenodd;stroke-linejoin:round;stroke-miterlimit:2;">
    <path fill="currentColor"
        d="M8.724,10.08C8.136,10.447 7.475,10.447 7.034,10.742C6.741,10.888 6.593,11.329 6.593,11.329C6.3,10.668 5.933,10.447 5.492,10.301C5.051,10.154 4.243,10.227 3.141,9.272C2.407,8.611 2.333,7.729 2.407,7.288L2.407,7.069C2.407,6.995 2.407,6.921 2.48,6.848C2.626,6.408 2.994,5.967 3.728,5.672C3.728,5.672 3.215,6.408 3.728,7.142C4.023,7.583 4.61,7.803 5.125,7.51C5.344,7.362 5.492,7.069 5.565,6.848C5.712,6.334 5.712,5.82 5.271,5.452C4.61,4.865 4.464,4.057 4.903,3.543C4.903,3.543 5.051,4.203 5.712,4.13C6.152,4.13 6.152,3.984 6.006,3.836C5.933,3.616 4.977,2.22 6.374,1.192C6.374,1.192 7.254,0.604 8.283,0.677C7.695,0.751 7.034,1.118 6.815,1.707L6.815,1.779C6.593,2.367 6.741,3.028 7.182,3.616C7.475,4.057 7.842,4.424 7.99,5.011C7.769,4.938 7.623,5.011 7.475,5.159C7.316,5.339 7.26,5.589 7.328,5.82C7.402,5.967 7.549,6.113 7.695,6.113L7.916,6.113C8.136,6.041 8.283,5.746 8.21,5.526C8.357,5.672 8.429,6.041 8.357,6.261C8.357,6.48 8.21,6.701 8.136,6.848C8.062,6.995 7.916,7.142 7.842,7.288C7.769,7.436 7.695,7.583 7.695,7.729C7.695,7.877 7.695,8.097 7.769,8.244C8.062,8.685 8.651,8.244 8.798,7.877C9.018,7.436 8.944,6.921 8.651,6.48C8.651,6.48 9.165,6.775 9.532,7.803C9.826,8.685 9.311,9.713 8.724,10.08Z"/>
</svg>