<?xml version="1.0" encoding="UTF-8" standalone="no"?>
<!DOCTYPE svg PUBLIC "-//W3C//DTD SVG 1.1//EN" "http://www.w3.org/Graphics/SVG/1.1/DTD/svg11.dtd">
<svg width="3px" height="3px" version="1.1" xmlns="http://www.w3.org/2000/svg" xmlns:xlink="http://www.w3.org/1999/xlink" xml:space="preserve" xmlns:serif="http://www.serif.com/" style="fill-rule:evenodd;clip-rule:evenodd;stroke-linejoin:round;stroke-miterlimit:2;">
    <rect id="Plan-de-travail4" serif:id="Plan de travail4" x="0" y="0" width="2.5" height="2.5" style="fill:none;"/>
    <path d="M1.324,1.176L1.324,1.029L1.471,1.029L1.471,0.882L1.618,0.882L1.618,1.618L1.471,1.618L1.471,1.176L1.324,1.176ZM1.176,1.176L1.324,1.176L1.324,1.324L1.176,1.324L1.176,1.176ZM1.029,1.176L1.029,1.618L0.882,1.618L0.882,0.882L1.029,0.882L1.029,1.029L1.176,1.029L1.176,1.176L1.029,1.176ZM2.353,1.029L2.5,1.029L2.5,1.176L2.353,1.176L2.353,1.029ZM1.912,1.029L1.912,0.882L2.353,0.882L2.353,1.029L1.912,1.029ZM1.912,1.471L1.765,1.471L1.765,1.029L1.912,1.029L1.912,1.471ZM2.353,1.471L2.353,1.324L2.5,1.324L2.5,1.471L2.353,1.471ZM1.912,1.471L2.353,1.471L2.353,1.618L1.912,1.618L1.912,1.471ZM0.147,1.324L0.147,1.618L0,1.618L0,0.882L0.588,0.882L0.588,1.029L0.147,1.029L0.147,1.176L0.588,1.176L0.588,1.324L0.147,1.324ZM0.588,1.029L0.735,1.029L0.735,1.176L0.588,1.176L0.588,1.029Z" style="fill:rgb(235,235,235);"/>
</svg>
