<?xml version="1.0" encoding="UTF-8" standalone="no"?>
<svg width="12px" height="12px" version="1.1" xmlns="http://www.w3.org/2000/svg"
    xmlns:xlink="http://www.w3.org/1999/xlink" xml:space="preserve"
    xmlns:serif="http://www.serif.com/"
    style="fill-rule:evenodd;clip-rule:evenodd;stroke-linejoin:round;stroke-miterlimit:2;">
    <path
        d="M6.308,5.692L6.308,5.075L6.925,5.075L6.925,4.458L7.542,4.458L7.542,7.542L6.925,7.542L6.925,5.692L6.308,5.692ZM5.692,5.692L6.308,5.692L6.308,6.308L5.692,6.308L5.692,5.692ZM5.075,5.692L5.075,7.542L4.458,7.542L4.458,4.458L5.075,4.458L5.075,5.075L5.692,5.075L5.692,5.692L5.075,5.692ZM10.626,5.075L11.243,5.075L11.243,5.692L10.626,5.692L10.626,5.075ZM8.776,5.075L8.776,4.458L10.626,4.458L10.626,5.075L8.776,5.075ZM8.776,6.925L8.159,6.925L8.159,5.075L8.776,5.075L8.776,6.925ZM10.626,6.925L10.626,6.308L11.243,6.308L11.243,6.925L10.626,6.925ZM8.776,6.925L10.626,6.925L10.626,7.542L8.776,7.542L8.776,6.925ZM1.374,6.308L1.374,7.542L0.757,7.542L0.757,4.458L3.224,4.458L3.224,5.075L1.374,5.075L1.374,5.692L3.224,5.692L3.224,6.308L1.374,6.308ZM3.224,5.075L3.841,5.075L3.841,5.692L3.224,5.692L3.224,5.075Z"
        fill="currentColor" />
</svg>